<svg id="katman_1" data-name="katman 1" xmlns="http://www.w3.org/2000/svg" viewBox="0 0 990.12 179.66">
  <defs>
    <style>
      .cls-1 {
        fill: #4338ca;
      }

      .cls-2 {
        fill: #fff;
      }
    </style>
  </defs>
  <path d="M4.94,60.67C19.53,56,31.48,46.57,44.21,38.5a21.58,21.58,0,0,1,14.32-3.18c9.85,1.06,14.5,10.81,9.1,19-.68,1-2.09,1.88-.92,3.44a4,4,0,0,0,4,1.55c1.82-.2,2.54-1.38,2.79-3,.54-3.41-.57-6.51-1.52-9.72C70.41,41.46,73,37.14,78,35.85a7.93,7.93,0,0,1,9.64,5.74,8.13,8.13,0,0,1-.76,5.79,16.23,16.23,0,0,0-1.2,8.28c.11,1.4-.26,3.22,1.77,3.64,1.46.31,3.12.42,4.31-.59,1.75-1.48-.13-2.68-.67-3.88C86.49,44.5,93,35.31,104.29,36.29c5.71.5,10.36,3.35,14.86,6.56,7.72,5.5,15.07,11.53,23.36,16.19,2.87,1.62,5.58,3.57,9.15,3.66,2.79.07,2.83,2,1.68,3.83a10,10,0,0,1-6.23,4.71c-10.15,2.26-20.23,5.07-30.72,5.23-3.65,0-5.75,1.39-8.2,4.2-3.27,3.77-5.42,7.41-6,12.44-.41,3.89-3.56,6.66-6.2,9.43-1.57,1.64-2.08,2.77-.41,5,6.56,8.6,5.88,18-1.83,25.4-2.18,2.11-2.23,3.19-.24,5.53,4.83,5.66,4,15.63-1.7,20.7-2.69,2.4-3.79,4.14-1.7,7.79,3,5.18,1.38,10.38-2.29,14.77-1.73,2.08-1.92,3.69-.81,6.21,2.56,5.84.12,12.53-5.49,14.52-3,1.09-3.58,2.71-3.63,5.46,0,2.46.61,6.69-2.25,6.58s-1.88-4.33-1.93-6.82-.62-3.88-2.83-5.22a11.53,11.53,0,0,1-4.78-15.06c1.06-2.4.73-3.8-.65-5.76-3.17-4.49-4.11-9.54-1.68-14.58,1.2-2.49.38-4-.93-5.81-6.29-8.86-6.46-14.41-.5-23.59,1.13-1.74,1-2.75-.14-4.34-6.25-8.74-6.82-17.73-.49-26.69,1.48-2.1.08-2.89-1.09-4.06-4.81-4.81-8-10.22-6.1-17.36.4-1.53-.89-2.34-1.3-3.48-3.38-9.29-12-7.58-18.92-8.91-8.85-1.7-17-5.3-25.5-8.09A5.6,5.6,0,0,1,4.94,60.67Z" transform="translate(-4.94 -35.17)"/>
  <path d="M421,60.7c14-4.38,25.43-13.14,37.4-20.9,4.92-3.18,10-5,16-4.56,10.73.81,15.56,12.95,9.55,19.15-.81.84-2.15,1.86-1,3.42a3.94,3.94,0,0,0,4,1.53c1.82-.2,2.57-1.25,2.69-3a20.31,20.31,0,0,0-1.18-9.29c-1.7-4.14-.37-7.53,3.15-10a7.47,7.47,0,0,1,9.69.37c3.3,2.69,3.55,6.27,1.93,9.94a16.84,16.84,0,0,0-1.28,8.27c.11,1.37-.56,3.23,1.59,3.65,1.63.31,3.5.54,4.78-.66,1.6-1.48-.34-2.69-.88-3.89-4.5-10,1.82-19.19,12.78-18.45,5.91.39,10.72,3.31,15.37,6.6,6.92,4.9,13.41,10.41,20.77,14.68,3.84,2.22,7.37,5.17,12.24,5.11,2.53,0,2.68,1.49,1.54,3.33a10.57,10.57,0,0,1-6.47,5.17c-10.3,2.38-20.57,5-31.21,5.37-4.48.16-12.61,7-12.91,11.53a20.45,20.45,0,0,1-7.11,14.31c-2.08,1.9-1.84,3.26-.25,5.4,6.22,8.31,5.47,17.91-1.94,25.1-1.84,1.79-2.5,2.82-.65,5.21,5.41,7,4.7,15.43-1.73,21.44-2.4,2.25-3.17,3.87-1.38,7.07,2.89,5.2,1.47,10.32-2.09,14.84-1.61,2-2.46,3.56-1,6.52,2.88,5.81,0,12.28-6,14.75a4.11,4.11,0,0,0-3,3.95c-.14,2-.31,4-.53,6-.12,1-.51,2.12-1.63,2.21s-1.51-1.07-1.71-2.06a11.73,11.73,0,0,1-.45-3c.31-3.76-.67-6.39-4.36-8.47-4.19-2.37-5.49-8.82-3.23-13.87,1-2.33.78-3.79-.61-5.81-3.16-4.62-4.47-9.73-1.49-15,1.33-2.34.08-3.7-1-5.32-6.53-9.44-6.7-14.39-.4-23.95,1.1-1.66.75-2.53-.21-3.88-6.28-8.92-7.06-18-.51-27.18,1-1.46.65-2.25-.53-3.3-5.43-4.83-8.35-10.55-6.81-18.12.69-3.41-3.71-4.33-4.41-7.3-.8-3.36-3-3.1-6.19-3.4A84,84,0,0,1,437.06,69a52.28,52.28,0,0,0-8.42-2.89C425.57,65.49,422.69,64.07,421,60.7Z" transform="translate(-4.94 -35.17)"/>
  <path class="cls-1" d="M338,137.25c0,15.46-.11,29.74.07,44,.05,3.76-.81,5.3-4.93,5.14-10.76-.43-9.26,1.32-9.31-9.26-.08-15.77.11-31.55-.11-47.32-.06-4.22.93-6.11,5.53-5.74a91.76,91.76,0,0,0,14,0c3.66-.26,5.3,1.36,6.68,4.46,6.52,14.67,13.23,29.25,20.45,45.15,0-15.23-.06-29.1.07-43,0-2.13-1.33-5.43,1.46-6.17a21.3,21.3,0,0,1,11.31.14c1.23.35,1,2,1,3.11,0,18.27,0,36.53,0,54.8,0,2.78-1,3.81-3.81,3.73-6.31-.18-13.44,1.65-18.73-.7-5.47-2.45-6.15-10.46-8.86-16C347.8,159.3,343.23,148.81,338,137.25Z" transform="translate(-4.94 -35.17)"/>
  <path class="cls-1" d="M721.1,143.13c-3.25.69-5.69-.49-7.72-4.6-2.89-5.86-15.37-6.77-20.07-2.08-3.31,3.31-2.19,9.2,2.37,10.48,4.12,1.15,8.49,1.42,12.76,2.09,2.62.41,5.29.66,7.86,1.29,8.52,2.09,13.22,7.51,13.68,15.54.57,10.06-3.15,16.62-11.82,19.61-10.58,3.65-21.26,3.7-31.57-1.07-6.13-2.83-9.68-7.92-11-14.52-.55-2.75,0-4.6,3.39-4.4a57,57,0,0,0,6,0c2.84-.15,4.28.72,5.25,3.82,2.45,7.87,17.87,10.78,23.38,4.7a7,7,0,0,0-3.76-11.71c-5.62-1.38-11.46-1.87-17.2-2.78-9.91-1.59-15.36-6.88-16-15.55-.75-9.37,4.22-16.81,13.58-19.5a41.62,41.62,0,0,1,26.46.69,18.62,18.62,0,0,1,12,12.47c1.44,4.73.87,5.43-4.19,5.53C723.57,143.14,722.74,143.13,721.1,143.13Z" transform="translate(-4.94 -35.17)"/>
  <path class="cls-1" d="M314,155.23c0,9-.12,17.94.06,26.9.07,3.29-1.05,4.34-4.29,4.24-12.34-.38-9.94,1.7-10.31-10.21-.15-5.08,2.23-11.6-1.1-14.86-3.07-3-9.52-.84-14.47-.89-12.22-.12-12.22,0-12.22,12.23,0,1.17,0,2.33,0,3.49,0,11.05-.73,11.59-11.89,10.22-2.13-.27-2.91-1.14-2.91-3.13q0-27.91,0-55.81c0-2.3,1-3.38,3.31-3.24.16,0,.33,0,.5,0,12.92.14,10.6-1.59,11,10.13.16,4.62-2,10.53.91,13.52,3.12,3.22,9.16,1,13.91,1.09,13,.17,13,.06,13-13,0-.5,0-1,0-1.49.3-11.84-2.42-10,10.69-10.32,3.24-.07,3.89,1.41,3.85,4.22C313.88,137.29,314,146.26,314,155.23Z" transform="translate(-4.94 -35.17)"/>
  <path class="cls-1" d="M593.89,155.56c0,8.8-.1,17.61.05,26.41,0,3.07-.69,4.49-4.13,4.4-12.81-.35-10.13,1.56-10.42-10q-.15-6.22,0-12.46c.05-2.5-.83-3.58-3.48-3.54-6.82.12-13.65.16-20.47,0-3.19-.08-4,1.34-3.94,4.18.1,5.81-.08,11.62,0,17.43.06,3-.76,4.52-4.21,4.43-12.7-.34-10.47,1.6-10.57-10.46-.13-15.44.08-30.88-.09-46.33,0-4,.92-5.67,5.24-5.5,10.89.41,9.3-1.47,9.67,9.54.17,4.92-2.16,11.15,1.14,14.38,3.07,3,9.21.86,14,.91,12.68.13,12.68,0,12.68-12.81,0-.66,0-1.33,0-2,.34-11.37-2.39-9.76,10.51-10,3-.06,4.09,1,4,4C593.8,137.3,593.89,146.43,593.89,155.56Z" transform="translate(-4.94 -35.17)"/>
  <path class="cls-1" d="M214.52,122.73c7.86.16,13.15.53,18.2,2.5,9.46,3.67,13.56,11.19,14.95,20.65.11.76,0,2.12-.37,2.3-3.79,1.68-7.82.66-11.76.74-2.5.05-2.6-1.86-3.12-3.69-2.12-7.39-6.82-10.56-15.39-10.65s-14.48,3.66-16.63,10.79a34.12,34.12,0,0,0,.06,20.11c2.19,7.16,8,10.7,16.78,10.41,8.53-.28,13.75-3.72,15.2-10.91.71-3.52,2.34-4.33,5.41-4a23,23,0,0,0,2.49,0c8.58,0,8.85.36,6.57,8.54-2.55,9.15-8.36,14.94-17.71,16.9C217,189,204.91,189.15,194.46,181c-10-7.82-13.59-25.11-8.54-39C190.57,129.32,201.24,122.69,214.52,122.73Z" transform="translate(-4.94 -35.17)"/>
  <path class="cls-1" d="M769.76,122.7c6.92.23,12.53.64,17.84,3,8.92,3.9,12.6,11.31,13.95,20.33.1.62.14,1.64-.21,1.89-3.44,2.39-7.35.75-11.05,1.11-2,.19-3.44-.43-3.84-2.85-1.55-9.22-8.43-11.79-17.13-11.46-9.16.36-13.89,4.79-15.7,13.68a35,35,0,0,0,0,13.83c1.75,9,6.45,13.23,15.62,13.69,9.84.5,14.89-2.88,17.33-11.93.58-2.18,1.53-3.13,3.74-3,1.16.08,2.33,0,3.49,0,9.13,0,9.44.43,6.86,9.08-2.29,7.68-6.93,13.36-14.77,15.53-13.27,3.67-26.5,4.26-37.92-5-10.06-8.16-13.16-25.3-7.88-39.07C744.83,129.06,755.35,122.67,769.76,122.7Z" transform="translate(-4.94 -35.17)"/>
  <path class="cls-1" d="M945.64,155.05c0-8.8.11-17.62-.06-26.42-.06-3.5,1.24-4.57,4.68-4.53,13.33.15,26.66.27,40,0,6.17-.14,4.13,4,4.56,7.07.55,3.86-1.12,4.77-4.78,4.64-8-.27-16,.1-24-.13-3.95-.11-5.72.87-5.58,5.22.33,9.69-.54,8.09,8.4,8.21,6.33.08,12.67.22,19,0,4.06-.17,4.29,2.1,4,5-.24,2.69,1.3,6.34-3.86,6.22-7.49-.17-15,.11-22.49-.08-3.5-.09-5.15.75-5,4.67.28,11.79-1.09,9.78,9.7,9.93,7,.1,14,.19,21,0,4.78-.15,3.85,3.11,3.76,5.74s1.31,5.92-3.61,5.87q-21-.21-42,0c-3.4,0-3.74-1.75-3.72-4.38C945.68,173,945.64,164,945.64,155.05Z" transform="translate(-4.94 -35.17)"/>
  <path class="cls-1" d="M125.84,154.71c0-8.64.1-17.29-.06-25.93-.07-3.36.92-4.73,4.52-4.68,13.49.16,27,.23,40.48,0,5-.09,4.18,3,4.2,5.88s.71,6-4.24,5.85c-8.32-.32-16.66.09-25-.15-4-.12-5.2,1.28-5.09,5.16.28,9.83-.6,8.14,8.29,8.27,6.49.09,13,.14,19.49,0,4.87-.12,3.49,3.35,3.62,5.89s.6,5.43-3.73,5.32c-7.83-.19-15.67,0-23.49-.07-3,0-4.19.92-4.16,4,.14,13.05-1.12,10.35,10,10.57,6.83.14,13.67.23,20.49,0,5.17-.19,3.85,3.35,3.95,6.08s.72,5.64-3.95,5.57c-13.66-.22-27.32-.19-41,0-3.73.05-4.46-1.53-4.41-4.76C125.93,172.66,125.84,163.68,125.84,154.71Z" transform="translate(-4.94 -35.17)"/>
  <path class="cls-2" d="M116.16,48.33c-1.63,9.73-3.33,11.44-12.79,12.88-1.7.26-2,.89-2.28,2.42-.86,4.29-3.68,6.89-7.92,8-6.77,1.8-9.78-1.26-8.23-8.14.45-2,1.54-1.77,2.9-1.61a7.46,7.46,0,0,0,6.36-2.15c1.91-1.85,2.83-3.5.55-5.86-3.36-3.49-4.18-7.7-1.46-11.8,2.83-4.26,7.19-4.9,12-3.85,5,1.1,9.15,3.92,13.21,6.79,9.76,6.89,19,14.55,30.18,19.27.71.31,1.76.51,1.56,1.61-.16.89-1,1.26-1.83,1.4a17.31,17.31,0,0,1-10.7-1.52C129.46,61.68,122.16,56.36,116.16,48.33Z" transform="translate(-4.94 -35.17)"/>
  <path class="cls-2" d="M9.05,62.25C22.62,56.48,33.77,47.05,46.33,40a19.42,19.42,0,0,1,13-2.31C67.52,39,70.23,45.88,65,52.24c-1.25,1.53-3.2,2.88-1.66,5.1s2.89,4.77,6.12,4.31c3.5-.49,4.36,1.1,4.11,4.22s.1,6.14-4.33,6.42c-5.6.35-10.65-3.09-11.41-8.67-.35-2.55-1.71-2.8-3.51-3.22-5.49-1.26-8.7-4.72-9.28-10.29-.33-3.2-1-3.37-3.41-1.26-6.28,5.52-13.53,9.6-21,13.26A13.22,13.22,0,0,1,9.05,62.25Z" transform="translate(-4.94 -35.17)"/>
  <path class="cls-2" d="M84.16,148.52a6.66,6.66,0,0,0-3-6.22q-5.76-3.93-11.61-7.74c-8-5.27-11.4-12.74-9.48-21.22,1.32-5.82,4.95-8.24,8.6-5.84,1.77,1.17,1.9,2.09.9,4-3.15,6.11-1.71,11.15,4,14.93,4.85,3.2,10,6,14.58,9.53,7.13,5.44,7.3,16.85.75,22.26-2.1,1.73-3.92,2-6.16.19s-1.53-3.25-.22-5.08A7.83,7.83,0,0,0,84.16,148.52Z" transform="translate(-4.94 -35.17)"/>
  <path class="cls-2" d="M66.9,85a10.83,10.83,0,0,0-2.22-.41c-1.36.06-2.54-2.64-3.77-.62-.81,1.33-.31,3.24.37,4.82,1.9,4.35,5.86,6.25,9.86,7.91,6,2.48,12.26,4.21,17.81,7.72,9.39,6,10.11,18.59,1.49,25.23-2.59,2-4.92,2-7.17-.08-2.77-2.51.42-3.72,1.5-5.18,4.15-5.63,3.37-10.73-2.67-14.22-5.47-3.15-11.17-5.9-16.72-8.92-3.72-2-6.91-4.63-8.56-8.72a9.3,9.3,0,0,1,4-12c1-.56,2.19-1.51,3.22-.7,1.67,1.33,2.66,2.76,3.39-.82.2-1,3.13,0,4.29,1.08,1.47,1.34,0,2.49-1,3.17A20.59,20.59,0,0,1,66.9,85Z" transform="translate(-4.94 -35.17)"/>
  <path class="cls-2" d="M79.7,177.72c3.81-8.08-2.49-10.79-8-14.12-9.09-5.53-12.84-14.4-9.32-22.13.83-1.83,1.35-5.16,4.73-3.49,2.51,1.23,5.81,2.22,3.47,6.52-1.92,3.53-.55,6.88,2.39,9.32,3.44,2.85,7.28,5.22,10.65,8.16,6.29,5.49,6.47,13.42.65,18.09-1,.79-2,2-3.48,1.14C79.61,180.51,80.13,179.12,79.7,177.72Z" transform="translate(-4.94 -35.17)"/>
  <path class="cls-2" d="M75.72,73.94c0-6,0-11.9,0-17.85,0-2.35.67-3.7,3.43-3.58,2.57.11,3.53,1.11,3.39,3.63-.69,12.71-1.3,25.43-1.93,38.14-.07,1.36-.12,2.92-2,2.66a3.46,3.46,0,0,1-3.33-3.66V73.94Z" transform="translate(-4.94 -35.17)"/>
  <path class="cls-2" d="M92.85,79.39c6.85,1.46,9.42,5.94,7.05,12.29a19.19,19.19,0,0,1-7.26,9.18,4.63,4.63,0,0,1-5.54.21c-1.08-.66-2.77-.92-2.72-2.5.05-1.38,1.7-1.36,2.65-1.89,6.8-3.76,9.62-7.52,9.64-13.43-2.5.63-4.65,2.62-7.37,1.75-2-.62-4.21-1.3-4.17-3.6.06-2.67,2.7-2.38,4.56-2.67,1.11-.17,2.34-.28,3.23.75l-.29.2C92.53,79.74,92.6,79.65,92.85,79.39Z" transform="translate(-4.94 -35.17)"/>
  <path class="cls-2" d="M82.11,199.06c1.9-8-1.62-11.5-7-14.29-5.72-3-10.94-6.61-10.25-14.28.16-1.75,0-4.12,2.55-4.05,2.2.05,4.45,1.16,4.14,3.91-.6,5.28,2.62,8.22,6.2,11.07a47.73,47.73,0,0,1,4.5,3.89C86.55,189.69,86.68,192.63,82.11,199.06Z" transform="translate(-4.94 -35.17)"/>
  <path class="cls-2" d="M73.34,76.88c-1.81,1.48-3.79.19-5.57.18-2.73,0-5.38.13-7.61,1.73-4.3,3.1-5.8-.84-7.85-3.05-2.38-2.57-1-4.79,1.07-6.84,1-.94,1.93-1.55,2.85-.24,4.06,5.79,10,7.2,16.53,7.18C72.9,75.84,73.05,76.34,73.34,76.88Z" transform="translate(-4.94 -35.17)"/>
  <path class="cls-2" d="M84.48,77.39c1.82-2.47,3.44-1.81,4.8-1.77,4.17.15,7.89-.88,10.9-3.84,1.89-1.86,3.43-2,5.32.13,1.66,1.92,2.92,3.42.81,5.91-2.47,2.91-4.55,5.13-8.41,1.67C94.34,76.3,89.6,77.33,84.48,77.39Z" transform="translate(-4.94 -35.17)"/>
  <path class="cls-2" d="M20.42,66.25a122.53,122.53,0,0,0,18.75-12c.84-.63,1.93-1.75,2.92-.27.71,1.07,1.72,2.79.49,3.58-6.4,4.11-11.89,10.29-20.55,9.6C21.75,67.12,21.48,66.85,20.42,66.25Z" transform="translate(-4.94 -35.17)"/>
  <path class="cls-2" d="M138.35,70.49c-7.39.63-19.09-6.33-20.95-11.39-.37-1-.55-2,.36-2.69s1.61.05,2.19.55A158.3,158.3,0,0,0,138.35,70.49Z" transform="translate(-4.94 -35.17)"/>
  <path class="cls-2" d="M85,45.07c-1.68,4.09-4.77,5.83-7.85,4.17s-4.59-4.71-2.91-7.94c1.93-3.73,5.16-4.28,8.66-1.66A7.77,7.77,0,0,0,85,45.07Z" transform="translate(-4.94 -35.17)"/>
  <path class="cls-2" d="M30.89,69.59c4.13-3,8.1-6,11.81-9.34,1.4-1.25,2.58-1.21,3.83.15,1.71,1.87,0,2.59-1.17,3.39C41,66.87,37,70.85,30.89,69.59Z" transform="translate(-4.94 -35.17)"/>
  <path class="cls-2" d="M127.51,72.28c-6.9.55-10.69-3.09-14.39-6.84-.84-.85-1.45-1.84-.14-2.92a2.11,2.11,0,0,1,3.07,0C119.62,65.57,123.2,68.61,127.51,72.28Z" transform="translate(-4.94 -35.17)"/>
  <path class="cls-2" d="M40.35,71.62c3.57-3.34,6.17-5.85,8.86-8.25a2.65,2.65,0,0,1,3.66-.16c1.53,1.39.06,2.43-.83,3.26C49.14,69.18,46.18,71.86,40.35,71.62Z" transform="translate(-4.94 -35.17)"/>
  <path class="cls-2" d="M79.63,119.54c-.64,2.11.7,6.3-1.81,6.25-3.47-.08-1.45-4.24-2.07-6.56a9.46,9.46,0,0,1-.18-3.44c.14-1.29-.78-3.47,1.52-3.44,1.91,0,2.63,1.69,2.55,3.59C79.59,117.09,79.63,118.24,79.63,119.54Z" transform="translate(-4.94 -35.17)"/>
  <path class="cls-2" d="M116.1,73.49c-4.65.15-7.68-2.37-10.21-5.68-.82-1.07-1.49-2.33,0-3.41a2.36,2.36,0,0,1,3.48.65C111.56,67.83,113.4,70.91,116.1,73.49Z" transform="translate(-4.94 -35.17)"/>
  <path class="cls-2" d="M88.06,89.93c-4.72,1.18-4.21-1.45-3.89-4.14,2.08-.13,3.16,1.6,4.77,2.21,3,1.17,3.25,3,.53,4.85-1.67,1.12-4.13,3.78-5.34,2C82.41,92.4,86.71,92.5,88.06,89.93Z" transform="translate(-4.94 -35.17)"/>
  <path class="cls-2" d="M68.32,196.75c-1.67-3.53-1.79-6.19-.75-8.86a2.11,2.11,0,0,1,2.76-1.43c1.85.66.89,1.78.25,2.67C69.13,191.12,68.92,193.53,68.32,196.75Z" transform="translate(-4.94 -35.17)"/>
  <path d="M85,45.07c-1.51,1-2.27,3.31-5.29,2.46,2.73-2.15.92-5.68,3.19-7.89C84.67,41.05,86.33,42.49,85,45.07Z" transform="translate(-4.94 -35.17)"/>
  <path class="cls-2" d="M73.4,85.28c0,2.41.71,4.52-1,5.18-1.36.53-3-.65-4.21-2.23A12.93,12.93,0,0,1,73.4,85.28Z" transform="translate(-4.94 -35.17)"/>
  <path class="cls-2" d="M76.45,143.49c2.48,4,1.61,7.23.92,11.66C75,151,75.55,147.73,76.45,143.49Z" transform="translate(-4.94 -35.17)"/>
  <path class="cls-2" d="M73.15,114.4a19.14,19.14,0,0,1,0,8.16C70.82,119.65,70.38,117.49,73.15,114.4Z" transform="translate(-4.94 -35.17)"/>
  <path class="cls-2" d="M73,198.76c-1.36-2.18-1.37-4.34-.36-7.81A9.82,9.82,0,0,1,73,198.76Z" transform="translate(-4.94 -35.17)"/>
  <path class="cls-2" d="M83.38,116.71c1.62,2.64,1.6,4.3-.44,6.1A5.48,5.48,0,0,1,83.38,116.71Z" transform="translate(-4.94 -35.17)"/>
  <path class="cls-2" d="M72.28,93.79c-2.58.37-3.94-1.31-5.69-3C69.45,90.45,70.66,92.54,72.28,93.79Z" transform="translate(-4.94 -35.17)"/>
  <path class="cls-2" d="M79.19,193c1.11,2.55,1,4.09.15,6.05C78.39,197,78.72,195.44,79.19,193Z" transform="translate(-4.94 -35.17)"/>
  <path class="cls-2" d="M76.73,177.89c-1.06-2.66-1.31-4-.43-5.41C77.38,173.83,77,175.2,76.73,177.89Z" transform="translate(-4.94 -35.17)"/>
  <path class="cls-2" d="M532.41,48.21c-2.06,10.47-3.23,11.67-12.65,13-1.63.23-2.06.7-2.35,2.35-.84,4.83-4.27,7.26-8.82,8.34-2.35.56-5.08.73-6.63-1-1.8-2.07-.9-5.09-.7-7.67.15-2,1.89-1.31,3.15-1.25a7.8,7.8,0,0,0,6.64-2.77c1.48-1.71,2.05-3.1.18-5.1-3.2-3.4-4.74-7.41-1.82-11.73s7.37-5.24,12.37-4.06c6,1.42,10.77,5.11,15.61,8.61,8.76,6.34,17.3,13,27.35,17.29.86.37,2.23.54,1.92,1.85-.25,1-1.46,1.22-2.47,1.35a17.69,17.69,0,0,1-10.65-1.85C545.5,61.4,538.3,56.2,532.41,48.21Z" transform="translate(-4.94 -35.17)"/>
  <path class="cls-2" d="M460.91,47.05c-11.32,7.18-20.66,17.41-34.84,16.5L425.32,62c3.89-2,7.79-4,11.67-6,9.3-4.86,17.35-11.73,26.73-16.49a19.18,19.18,0,0,1,12.61-1.66c7.45,1.4,9.95,8.52,5.07,14.29-1.31,1.56-3,3-1.73,5.16s2.84,4.8,6,4.43c5.37-.62,3.7,3.24,3.93,5.87.29,3.37-1.29,4.81-4.7,4.79-5.82,0-9.95-3.35-10.86-9.33-.17-1.16-.33-2-1.43-2.15C464.66,59.85,461.28,54.75,460.91,47.05Z" transform="translate(-4.94 -35.17)"/>
  <path class="cls-2" d="M480.83,106.08c4.36.21,5.92,3,4.49,6.14a10.87,10.87,0,0,0,4.06,13.9c4.84,3.21,9.95,6,14.62,9.48,7.41,5.45,7.82,16.89,1.18,22.6-2.1,1.81-3.87,2-6.12.2s-1.41-3-.24-5c3.1-5.17,2.45-8.36-2.44-11.94-3.88-2.84-8.14-5.16-12-8-9.07-6.56-11.4-17.67-5.45-25.2C479.7,107.29,480.41,106.12,480.83,106.08Z" transform="translate(-4.94 -35.17)"/>
  <path class="cls-2" d="M483.32,84.94a9.85,9.85,0,0,0-1.82-.24c-1.5.16-3-2.63-4.28-.4-1,1.79-.15,4,.91,5.67,2.64,4.17,7,6,11.39,7.6,5.33,1.92,10.63,3.8,15.5,6.75,11.23,6.78,9,20,1.57,25.5-2.61,1.93-4.95,1.79-7.13-.35-2.4-2.36.45-3.45,1.48-4.81,4.56-6,3.65-11-3.06-14.76-5.65-3.17-11.51-6-17.14-9.17-4-2.27-7.2-5.4-8.27-10.12-1.38-6.07,3.22-11,9-9.64a2.09,2.09,0,0,0,2.2-.69c1.22-1.28,3.43-1.49,4.3-.35,1.33,1.76-.08,2.79-1.29,3.58A18.25,18.25,0,0,1,483.32,84.94Z" transform="translate(-4.94 -35.17)"/>
  <path class="cls-2" d="M496,177.49c4-7.94-2.58-10.58-8-13.94-8.38-5.22-11.95-12.6-10-20.41,1.45-5.74,4.11-6.84,8.23-3.61,1.68,1.32,1.65,2.48.89,4.27-1.89,4.43-.44,8,3.15,11s7.9,5,11.05,8.5c4.71,5.3,4.43,12.76-.73,16.79-1,.77-2.06,2-3.5,1.07C496,180.5,496,179.2,496,177.49Z" transform="translate(-4.94 -35.17)"/>
  <path class="cls-2" d="M491.9,74.34c0-6.14,0-12.29,0-18.43,0-2.09.37-3.56,3-3.42,2.23.12,3.89.44,3.74,3.3-.7,12.92-1.31,25.85-2,38.77-.06,1.1,0,2.59-1.74,2.38s-3.12-1.08-3.13-3.18c0-5.64,0-11.28-.07-16.93,0-.83,0-1.66,0-2.49Z" transform="translate(-4.94 -35.17)"/>
  <path class="cls-2" d="M513.2,83.09c-3.51,1.75-6.61,3-9.82,1-1.15-.69-2.31-1.62-2.17-3.08s1.53-1.63,2.62-2c4.25-1.24,7.78.1,11,3,3,2.7,2.76,5.82,1.6,9.14a18.76,18.76,0,0,1-7.54,9.63c-1.67,1.12-3.29,1.49-5.09.39-1.23-.75-3.22-1-3.19-2.7,0-1.46,2-1.46,3.09-2.1C508.63,93.57,513,90.31,513.2,83.09Z" transform="translate(-4.94 -35.17)"/>
  <path class="cls-2" d="M499.23,197.54c.89-6.91-3-10.39-8.5-13.19s-10.2-6.55-9.73-13.65c.12-1.87.11-4.47,2.94-4.27,2.29.15,4,1.56,3.73,4.32-.48,4.16,1.95,6.82,4.76,9.29,2.24,2,4.68,3.75,6.71,5.91C502.52,189.56,502.74,193.5,499.23,197.54Z" transform="translate(-4.94 -35.17)"/>
  <path class="cls-2" d="M501.17,76.79c.59-1.93,2.2-1.26,3.31-1.18,4.7.33,8.92-.73,12.34-4.07,2.22-2.17,3.61-1,5.27.78s2.47,3.34.51,5.5c-2.44,2.72-4.48,5.38-8.41,1.68-2.33-2.2-5.65-2.51-8.92-2.3C504,77.29,502.41,78.38,501.17,76.79Z" transform="translate(-4.94 -35.17)"/>
  <path class="cls-2" d="M489.6,76.54c-5.54.31-10.43.64-15.42,3.12-2.92,1.45-5-3-6.48-5.65-1.57-2.89,1.36-4,2.72-5.65a1.06,1.06,0,0,1,1.73-.06C476.4,74.08,482.21,76.52,489.6,76.54Z" transform="translate(-4.94 -35.17)"/>
  <path class="cls-2" d="M437.27,66.9c6.38-3.93,12.16-8.3,18-12.53.93-.67,2.09-2.18,3.23-.23.65,1.11,1.65,2.65.24,3.57-6,3.88-11.31,9.3-19.15,9.56A13,13,0,0,1,437.27,66.9Z" transform="translate(-4.94 -35.17)"/>
  <path class="cls-2" d="M554.31,70.3c-4.19,1.41-6.66-.12-9-1.35a33.25,33.25,0,0,1-10.81-8.65c-.87-1.08-1.36-2.6-.35-3.66s2.09.25,2.87.92A161.1,161.1,0,0,0,554.31,70.3Z" transform="translate(-4.94 -35.17)"/>
  <path class="cls-2" d="M501.3,40.84c.49,3,.85,6.12-2.19,8a5.62,5.62,0,0,1-6.15.07c-2.62-1.7-4-4.3-2.73-7.23,1.87-4.27,5.47-4.12,9.24-2.64C498.81,41,499.22,41.74,501.3,40.84Z" transform="translate(-4.94 -35.17)"/>
  <path class="cls-2" d="M446.47,69.61A103.75,103.75,0,0,0,459.32,60c1.19-1.09,2.4-.85,3.45.36.54.63,1.09,1.12.6,2.13C461.86,65.57,451.13,70.38,446.47,69.61Z" transform="translate(-4.94 -35.17)"/>
  <path class="cls-2" d="M543.71,71.85C538.46,72.56,531,68.93,529,65a1.9,1.9,0,0,1,.38-2.61c1.11-1,2.1-.65,3.07.19a7.89,7.89,0,0,1,.76.65C536.21,66.56,540,68.91,543.71,71.85Z" transform="translate(-4.94 -35.17)"/>
  <path class="cls-2" d="M495.78,119.69c-.95,2,1.18,6.15-1.68,6.16-3.37,0-1.75-4.16-2.19-6.53a8.6,8.6,0,0,1,0-2.95c.25-1.46-1.07-4,1.11-4.15,2.34-.15,2.88,2.23,2.77,4.39C495.74,117.59,495.78,118.58,495.78,119.69Z" transform="translate(-4.94 -35.17)"/>
  <path class="cls-2" d="M532.27,73.39c-4.58.27-7.52-2.24-10-5.42-.73-.94-2.06-2.13-.45-3.39,1.45-1.14,2.89-.65,3.93.65C527.92,67.9,529.77,70.81,532.27,73.39Z" transform="translate(-4.94 -35.17)"/>
  <path class="cls-2" d="M457,71.41c3-2.88,5.56-5.33,8.15-7.74,1.35-1.26,3.15-1.75,4.33-.24s-.64,2.63-1.64,3.53C465,69.55,462.05,72.17,457,71.41Z" transform="translate(-4.94 -35.17)"/>
  <path class="cls-2" d="M500,94.93c.16-2.46,2.5-2.51,3.29-4.19-1.52-.61-3.78-.7-3-3.27.21-.72.4-2,1.48-1.34,2.06,1.27,5.32,1.54,5.85,4.1.42,2-2.28,2.94-3.88,4C502.62,95,501.5,95.87,500,94.93Z" transform="translate(-4.94 -35.17)"/>
  <path class="cls-2" d="M484.82,196.59c-1.3-3-2.72-5.85-.8-8.9.68-1.07,1.68-1.81,2.86-1.06s.6,1.72,0,2.56C485.21,191.39,485.26,194,484.82,196.59Z" transform="translate(-4.94 -35.17)"/>
  <path class="cls-2" d="M493.94,155.14c-3.08-3.57-1.7-6.79-2-9.76-.06-.68.24-1.43,1-1.19a2.05,2.05,0,0,1,1.27,1.32A27.13,27.13,0,0,1,493.94,155.14Z" transform="translate(-4.94 -35.17)"/>
  <path class="cls-2" d="M484.17,88.14l4.95-2.9c.59,2,1.23,4.18-.33,5.15C487.46,91.21,485.78,89.73,484.17,88.14Z" transform="translate(-4.94 -35.17)"/>
  <path d="M501.3,40.84c-.55,3.08-.18,6.83-5.23,6.72,3.5-2,.66-6.29,3.4-8.5Z" transform="translate(-4.94 -35.17)"/>
  <path class="cls-2" d="M492.1,206.94V194h.17v12.93Z" transform="translate(-4.94 -35.17)"/>
  <path class="cls-2" d="M489,114.3a19,19,0,0,1,.17,8.66C487.48,119.67,487.22,117.59,489,114.3Z" transform="translate(-4.94 -35.17)"/>
  <path class="cls-2" d="M489,191.27a11.4,11.4,0,0,1,.4,7.62C487.36,196.62,487.7,194.55,489,191.27Z" transform="translate(-4.94 -35.17)"/>
  <path class="cls-2" d="M495.43,193.53a4.31,4.31,0,0,1,0,5.39Z" transform="translate(-4.94 -35.17)"/>
  <path class="cls-2" d="M483.81,91.12a8.36,8.36,0,0,1,5.57,3.22C486.49,94.4,485.12,92.78,483.81,91.12Z" transform="translate(-4.94 -35.17)"/>
  <path class="cls-2" d="M493.19,178.35c-1.6-2.72-1.48-4.34-.68-6.46C493.88,173.81,493.51,175.49,493.19,178.35Z" transform="translate(-4.94 -35.17)"/>
  <path class="cls-2" d="M499.34,117.37c1.84,1.56,1.63,3.16.58,5C497.72,120.79,499.32,119,499.34,117.37Z" transform="translate(-4.94 -35.17)"/>
  <path class="cls-1" d="M426.54,122.75c-20.54.08-33.08,12.64-32.89,32.95.19,19.89,12.51,32.07,32.63,32.25,20.51.17,33.06-12.26,33-32.73C459.3,135,446.84,122.67,426.54,122.75Zm17.39,35.12c-.88,14.72-9.48,20.84-24,17.09-7.59-2-11.14-8.62-10.95-20.59.17-10.93,3.89-17.2,11.2-18.9,15.6-3.63,23.9,3.3,23.9,19.91C444,156.21,444,157,443.93,157.87Z" transform="translate(-4.94 -35.17)"/>
  <path class="cls-1" d="M842.43,122.75c-20.39.09-32.82,12.37-32.88,32.46s12.36,32.58,32.64,32.73c20.52.16,33.07-12.28,33-32.74C875.19,135,862.72,122.65,842.43,122.75ZM859.75,159c-1,14.21-12.67,21.16-25.9,15.33-8.38-3.7-8.89-11.46-8.91-19s.53-15.34,8.85-19c14.76-6.57,26.21,1.93,26.15,19.6C859.89,156.63,859.84,157.79,859.75,159Z" transform="translate(-4.94 -35.17)"/>
  <path class="cls-1" d="M635.74,122.76c-20.34-.11-32.93,12.12-33.13,32.2-.21,20.33,12.14,32.74,32.86,33,20.06.27,32.65-12.24,32.73-32.53S656.13,122.87,635.74,122.76Zm17.39,33.56c-.51,11.55-3.65,17.05-11.41,18.66-15.09,3.13-24.12-2.56-23.78-20.07,0-.67,0-1.33,0-2,.52-18.52,13.93-20.31,25.39-17C650.32,137.94,653.62,145.32,653.13,156.32Z" transform="translate(-4.94 -35.17)"/>
  <path class="cls-1" d="M935.48,134c-3.37-7.47-10.16-9.64-17.72-9.76-9.48-.15-19,.12-28.46-.12-3.93-.1-4.75,1.58-4.68,5,.16,8.63,0,17.26,0,25.9h0c0,7-.12,13.95,0,20.92.25,12-2.38,10.15,11.14,10.39,2.77,0,3.93-.93,3.86-3.73-.12-4.15.17-8.32-.09-12.45-.23-3.82,1-5.36,5-5.22a95.1,95.1,0,0,0,17.44-.52c4.84-.71,9-2.63,11.74-6.73C938.75,150.17,939.12,142,935.48,134ZM913.4,153.21c-1.5.06-3,0-4.5,0-10.73-.12-9.18,1.31-9.22-9.24,0-9.79-1.15-8.28,8.49-8.43,1.83,0,3.67-.07,5.5,0,5.7.35,8.74,3.41,8.76,8.73C922.45,150,919.47,153,913.4,153.21Z" transform="translate(-4.94 -35.17)"/>
  <path d="M92.85,79.39c-.5.75-.58,2-1.92,1.7-.28-.06-.7-.83-.6-1,.62-1,1.69-.51,2.59-.61Z" transform="translate(-4.94 -35.17)"/>
  <path d="M509.36,80.18c-1.34.67-1.72,1-2.07,1-.69,0-1.14-.55-.88-1.22.1-.25.77-.4,1.17-.39A8.55,8.55,0,0,1,509.36,80.18Z" transform="translate(-4.94 -35.17)"/>
</svg>
